<svg width="360" height="360" viewBox="0 0 360 360" fill="none" xmlns="http://www.w3.org/2000/svg">
<rect width="360" height="360" rx="180" fill="white"/>
<path d="M126.529 41.6643C105.248 44.1517 88.803 52.5812 76.7115 67.1602C73.0495 71.5823 65.9327 82.361 65.9327 83.4665C65.9327 83.6047 65.1727 85.4012 64.2744 87.4049C60.8888 95.0054 57.6414 106.959 56.1904 117.323C55.0158 125.822 54.5321 170.733 55.5685 181.097C57.365 200.651 63.5835 218.616 73.7404 233.747C78.9916 241.555 91.0832 253.232 100.135 259.243C104.349 262.007 108.288 264.771 108.979 265.393C111.19 267.397 110.775 265.876 107.804 261.385C101.862 252.472 98.4763 245.01 95.5743 234.784C94.3306 230.431 93.9851 226.907 93.7087 218.201C93.4324 207.975 93.5706 206.593 95.2979 199.546C99.4436 182.686 109.186 168.937 124.179 158.849C128.809 155.809 128.878 155.74 126.943 155.325C111.535 152.078 101.447 145.997 93.9851 135.357C84.8646 122.367 83.4136 102.951 90.4613 88.3032C95.0906 78.5608 105.248 69.7858 114.783 67.2984C121.761 65.4328 128.671 65.0874 135.442 66.1929C139.104 66.8147 143.18 67.7821 144.493 68.4039C145.875 68.9567 147.188 69.1639 147.533 68.8185C147.81 68.5421 148.363 66.5383 148.777 64.4655C149.123 62.3927 150.435 56.5196 151.61 51.4757C152.716 46.4318 153.683 41.9406 153.683 41.5952C153.683 40.8351 133.3 40.9042 126.529 41.6643Z" fill="#0B497A"/>
<path d="M161.974 43.8062C158.934 52.0976 154.443 85.1939 154.374 99.7729C154.374 110.344 156.446 131.833 157.621 132.938C157.897 133.146 159.901 133.146 161.974 132.869C166.88 132.109 190.51 132.109 197.212 132.8C214.348 134.666 231.898 137.706 240.396 140.262C265.754 148.001 280.54 156.085 294.152 169.835C296.709 172.391 298.92 174.395 298.989 174.257C301.2 171.493 305 154.772 305 148.001C305 141.575 302.443 129.553 299.818 123.196C298.436 119.949 297.123 116.839 296.847 116.287C296.64 115.734 295.672 114.006 294.705 112.486C281.715 91.5506 268.725 79.1827 245.924 66.0547C240.673 63.0145 228.996 57.3487 226.232 56.5196C225.265 56.2432 224.228 55.7596 223.814 55.4832C222.916 54.8613 211.999 51.1302 205.849 49.3338C194.725 46.0863 178.142 42.908 167.571 41.9406L162.872 41.457L161.974 43.8062Z" fill="#2377BF"/>
<path d="M118.444 80.2883C115.128 82.0157 112.088 86.9905 112.088 90.8598C112.018 94.66 114.229 99.0821 117.546 101.569C119.619 103.159 120.724 103.504 123.972 103.504C127.219 103.504 128.325 103.159 130.398 101.569C137.722 95.9728 137.514 85.125 129.983 80.4265C126.943 78.561 121.761 78.4919 118.444 80.2883Z" fill="#0B497A"/>
<path d="M161.974 158.365C157.138 159.056 148.915 161.613 144.01 163.893C127.358 171.908 116.786 185.312 112.917 203.484C111.051 212.397 111.19 220.343 113.263 229.947C116.026 242.73 120.103 251.436 128.602 262.422C138.828 275.619 154.996 287.987 172.891 296.347C175.793 297.66 179.041 299.249 180.077 299.802C181.044 300.355 182.219 300.769 182.633 300.769C183.048 300.769 184.706 301.391 186.365 302.082C187.954 302.842 190.51 303.74 192.03 304.224C193.55 304.639 195.416 305.261 196.176 305.606C200.184 307.333 220.705 312.308 230.378 313.897C232.865 314.312 236.251 314.934 237.978 315.279C239.706 315.694 245.302 316.454 250.415 317.007C255.528 317.559 260.434 318.25 261.332 318.458L262.921 318.941L262.576 312.446C262.369 308.853 261.816 300.217 261.401 293.169C260.158 271.681 258.776 254.338 258.016 250.33C257.601 248.257 256.841 243.559 256.288 239.966C252.488 215.299 245.302 197.058 234.524 185.105C226.716 176.399 215.108 167.348 208.268 164.653C206.955 164.169 205.504 163.478 205.158 163.202C204.744 162.925 201.22 161.682 197.212 160.507C190.441 158.434 189.197 158.227 177.866 158.02C171.233 157.951 164.047 158.089 161.974 158.365Z" fill="#2377BF"/>
</svg>
