<svg width="250" height="280" viewBox="0 0 250 280" fill="none" xmlns="http://www.w3.org/2000/svg">
<path d="M71.5287 1.60567C50.2475 4.09308 33.803 12.5226 21.7115 27.1016C18.0495 31.5237 10.9327 42.3024 10.9327 43.4079C10.9327 43.5461 10.1727 45.3426 9.27444 47.3463C5.8888 54.9468 2.64135 66.9001 1.19037 77.2643C0.0157585 85.763 -0.467904 130.675 0.568515 141.039C2.36498 160.593 8.58349 178.557 18.7404 193.689C23.9916 201.497 36.0832 213.174 45.1345 219.185C49.3493 221.949 53.2877 224.712 53.9787 225.334C56.1897 227.338 55.7751 225.818 52.804 221.327C46.8619 212.414 43.4763 204.951 40.5743 194.725C39.3306 190.372 38.9851 186.848 38.7087 178.143C38.4324 167.917 38.5706 166.535 40.2979 159.487C44.4436 142.628 54.1859 128.878 69.1795 118.79C73.8088 115.75 73.8779 115.681 71.9433 115.266C56.5352 112.019 46.4473 105.939 38.9851 95.298C29.8646 82.3082 28.4136 62.8926 35.4613 48.2446C40.0906 38.5022 50.2475 29.7272 59.7826 27.2398C66.7612 25.3742 73.6706 25.0288 80.4419 26.1343C84.1039 26.7561 88.1805 27.7235 89.4933 28.3453C90.8752 28.8981 92.188 29.1054 92.5335 28.7599C92.8098 28.4835 93.3626 26.4798 93.7772 24.4069C94.1226 22.3341 95.4354 16.461 96.61 11.4171C97.7155 6.3732 98.6829 1.88205 98.6829 1.53658C98.6829 0.776536 78.3 0.845631 71.5287 1.60567Z" fill="#0B497A"/>
<path d="M106.974 3.7476C103.934 12.039 99.4428 45.1353 99.3737 59.7143C99.3737 70.2858 101.446 91.7742 102.621 92.8797C102.897 93.087 104.901 93.087 106.974 92.8106C111.88 92.0506 135.51 92.0506 142.212 92.7415C159.348 94.6071 176.898 97.6473 185.396 100.204C210.754 107.942 225.54 116.026 239.152 129.776C241.709 132.333 243.92 134.337 243.989 134.198C246.2 131.435 250 114.714 250 107.942C250 101.517 247.443 89.4941 244.818 83.1374C243.436 79.8899 242.123 76.7807 241.847 76.2279C241.64 75.6752 240.672 73.9478 239.705 72.4277C226.715 51.492 213.725 39.1241 190.924 25.9961C185.673 22.9559 173.996 17.2902 171.232 16.461C170.265 16.1846 169.228 15.701 168.814 15.4246C167.916 14.8027 156.999 11.0716 150.849 9.27517C139.725 6.02772 123.142 2.84937 112.571 1.88204L107.872 1.39838L106.974 3.7476Z" fill="#2377BF"/>
<path d="M63.4442 40.2297C60.1277 41.9571 57.0875 46.9319 57.0875 50.8012C57.0184 54.6014 59.2294 59.0235 62.546 61.5109C64.6188 63.1001 65.7243 63.4456 68.9718 63.4456C72.2192 63.4456 73.3248 63.1001 75.3976 61.5109C82.7216 55.9142 82.5143 45.0664 74.983 40.3679C71.9429 38.5024 66.7608 38.4333 63.4442 40.2297Z" fill="#0B497A"/>
<path d="M106.974 118.306C102.138 118.997 93.9153 121.554 89.0096 123.834C72.3578 131.849 61.7863 145.253 57.917 163.425C56.0515 172.339 56.1897 180.284 58.2625 189.889C61.0263 202.671 65.1029 211.377 73.6015 222.363C83.8275 235.56 99.9957 247.928 117.891 256.289C120.793 257.601 124.041 259.191 125.077 259.743C126.044 260.296 127.219 260.711 127.633 260.711C128.048 260.711 129.706 261.333 131.365 262.023C132.954 262.784 135.51 263.682 137.03 264.165C138.55 264.58 140.416 265.202 141.176 265.547C145.184 267.275 165.705 272.249 175.378 273.839C177.865 274.253 181.251 274.875 182.978 275.221C184.706 275.635 190.302 276.395 195.415 276.948C200.528 277.501 205.434 278.192 206.332 278.399L207.921 278.883L207.576 272.388C207.369 268.795 206.816 260.158 206.401 253.11C205.158 231.622 203.776 214.279 203.016 210.272C202.601 208.199 201.841 203.5 201.288 199.907C197.488 175.241 190.302 157 179.524 145.046C171.716 136.34 160.108 127.289 153.268 124.594C151.955 124.11 150.504 123.42 150.158 123.143C149.744 122.867 146.22 121.623 142.212 120.448C135.441 118.376 134.197 118.168 122.866 117.961C116.233 117.892 109.047 118.03 106.974 118.306Z" fill="#2377BF"/>
</svg>
