<svg width="720" height="405" viewBox="0 0 720 405" fill="none" xmlns="http://www.w3.org/2000/svg">
<path d="M368.496 85.8248C350.446 87.9345 336.498 95.0841 326.243 107.449C323.137 111.2 317.101 120.342 317.101 121.28C317.101 121.397 316.456 122.921 315.694 124.62C312.823 131.067 310.068 141.205 308.838 149.995C307.841 157.204 307.431 195.296 308.31 204.086C309.834 220.671 315.108 235.908 323.723 248.742C328.177 255.364 338.432 265.268 346.109 270.367C349.684 272.711 353.024 275.055 353.61 275.582C355.486 277.282 355.134 275.993 352.614 272.183C347.574 264.624 344.703 258.294 342.241 249.621C341.187 245.929 340.894 242.94 340.659 235.556C340.425 226.883 340.542 225.711 342.007 219.733C345.523 205.434 353.786 193.772 366.503 185.216C370.43 182.638 370.488 182.579 368.847 182.227C355.779 179.473 347.223 174.316 340.894 165.291C333.158 154.274 331.927 137.806 337.905 125.382C341.831 117.119 350.446 109.676 358.533 107.567C364.452 105.984 370.312 105.691 376.055 106.629C379.161 107.156 382.619 107.977 383.733 108.504C384.905 108.973 386.018 109.149 386.311 108.856C386.545 108.622 387.014 106.922 387.366 105.164C387.659 103.406 388.772 98.4245 389.769 94.1465C390.706 89.8684 391.527 86.0592 391.527 85.7662C391.527 85.1216 374.239 85.1802 368.496 85.8248Z" fill="#0B497A"/>
<path d="M398.559 87.6415C395.98 94.6739 392.171 122.745 392.113 135.11C392.113 144.076 393.871 162.302 394.867 163.24C395.101 163.416 396.801 163.416 398.559 163.181C402.72 162.537 422.762 162.537 428.447 163.123C442.98 164.705 457.866 167.283 465.074 169.452C486.581 176.015 499.122 182.872 510.667 194.534C512.835 196.702 514.711 198.402 514.769 198.285C516.645 195.94 519.868 181.758 519.868 176.015C519.868 170.565 517.7 160.368 515.473 154.977C514.301 152.222 513.187 149.585 512.953 149.116C512.777 148.648 511.956 147.182 511.136 145.893C500.119 128.136 489.101 117.646 469.762 106.512C465.308 103.933 455.404 99.1277 453.06 98.4245C452.24 98.1901 451.361 97.7798 451.009 97.5454C450.247 97.018 440.988 93.8534 435.772 92.3297C426.337 89.5754 412.272 86.8796 403.306 86.0592L399.321 85.649L398.559 87.6415Z" fill="#2377BF"/>
<path d="M68.3294 106.98C63.2895 107.625 53.8543 110.028 50.0451 111.669C41.196 115.537 40.6686 115.83 30.706 122.628C27.1312 125.03 18.5751 134.055 14.7659 139.329C7.38191 149.585 1.9904 163.533 0.642526 175.781C-2.75647 206.606 7.38191 232.919 29.827 251.496C36.8008 257.298 45.4155 261.81 55.1436 264.741C73.1934 270.249 97.5138 269.136 112.985 262.162C114.392 261.576 115.622 261.049 115.798 261.049C116.618 261.049 125.995 255.364 128.632 253.313C131.738 250.91 137.071 246.046 138.184 244.581C138.771 243.878 137.188 242.003 128.691 233.446L118.552 223.132L113.63 227.176C106.773 232.919 99.0375 236.611 90.5986 238.193C82.2769 239.717 79.464 239.658 71.2595 237.959C60.8281 235.732 52.9167 231.395 45.4741 223.894C34.0464 212.291 29.1237 195.296 31.9953 177.422C35.1013 158.376 47.5838 143.725 65.9266 137.571C70.3219 136.106 71.3767 135.989 80.343 135.989C89.0163 135.989 90.4228 136.106 93.8218 137.396C102.319 140.443 107.887 143.783 114.626 149.702L118.611 153.218L128.632 142.904C134.141 137.22 138.771 132.297 138.888 132.004C139.064 131.418 135.372 127.726 129.57 122.745C120.135 114.657 106.011 108.68 92.0637 106.98C86.3206 106.219 74.2483 106.277 68.3294 106.98Z" fill="#0B497A"/>
<path d="M164.732 186.623V263.979H217.475H270.218V250.207V236.435H259.552C253.633 236.435 237.224 236.377 223.042 236.26L197.257 236.142V218.268V200.394L230.074 200.336L262.892 200.219L263.068 186.388L263.185 172.558H230.074H196.964V155.563V138.568H233.591H270.218L270.1 124.034L269.925 109.559L217.357 109.383L164.732 109.266V186.623Z" fill="#0B497A"/>
<path d="M552.217 110.087C552.041 110.438 551.924 140.619 551.983 177.187C552.041 213.815 552.1 248.332 552.1 253.841V263.979H567.63H583.159V213.287C583.159 185.392 583.335 162.595 583.628 162.595C583.863 162.595 585.797 165.701 587.965 169.452C592.36 177.363 598.103 187.443 600.272 191.311C601.092 192.776 606.191 201.742 611.582 211.236C616.974 220.73 622.717 230.692 624.299 233.329L627.229 238.194H636.078C644.576 238.194 645.045 238.135 645.806 236.963C646.803 235.322 647.565 233.974 653.776 222.957C676.808 182.169 684.602 168.338 686.008 165.701C686.887 164.002 687.825 162.771 688.118 162.947C688.411 163.123 688.645 184.513 688.645 213.639V263.979H703.882H719.119V186.74V109.442L702.417 109.501C692.162 109.559 685.539 109.794 685.246 110.145C684.485 110.907 652.839 167.225 646.92 178.301C645.631 180.645 644.048 183.458 643.345 184.513C642.642 185.509 641.118 188.146 640.005 190.315C638.891 192.483 637.426 195.003 636.723 195.823L635.492 197.347L632.386 191.838C620.021 169.979 611.875 155.387 611.875 155.211C611.875 155.094 609.121 149.996 605.78 143.959C602.44 137.923 596.873 127.843 593.415 121.573C589.957 115.302 587.086 110.087 586.969 109.969C586.558 109.501 552.51 109.618 552.217 110.087Z" fill="#0B497A"/>
<path d="M361.639 118.584C358.826 120.049 356.247 124.268 356.247 127.55C356.189 130.773 358.064 134.524 360.877 136.634C362.635 137.982 363.573 138.275 366.327 138.275C369.081 138.275 370.019 137.982 371.777 136.634C377.989 131.887 377.813 122.686 371.426 118.701C368.847 117.119 364.452 117.06 361.639 118.584Z" fill="#0B497A"/>
<path d="M398.559 184.806C394.457 185.392 387.483 187.56 383.322 189.494C369.199 196.292 360.232 207.661 356.951 223.074C355.368 230.634 355.486 237.373 357.244 245.519C359.588 256.361 363.045 263.745 370.254 273.062C378.927 284.256 392.64 294.746 407.818 301.837C410.28 302.95 413.034 304.298 413.913 304.767C414.734 305.236 415.73 305.587 416.081 305.587C416.433 305.587 417.84 306.115 419.246 306.701C420.594 307.345 422.762 308.107 424.051 308.517C425.341 308.869 426.923 309.397 427.568 309.69C430.967 311.155 448.372 315.374 456.576 316.722C458.686 317.074 461.558 317.601 463.023 317.894C464.488 318.246 469.235 318.89 473.571 319.359C477.908 319.828 482.069 320.414 482.831 320.59L484.178 321L483.885 315.491C483.71 312.444 483.241 305.118 482.889 299.141C481.834 280.915 480.662 266.206 480.018 262.807C479.666 261.049 479.021 257.064 478.553 254.016C475.329 233.095 469.235 217.624 460.093 207.485C453.47 200.101 443.625 192.424 437.823 190.139C436.71 189.728 435.479 189.142 435.186 188.908C434.834 188.674 431.846 187.619 428.447 186.623C422.704 184.864 421.649 184.689 412.038 184.513C406.412 184.454 400.317 184.571 398.559 184.806Z" fill="#2377BF"/>
</svg>
